PathFileType	4	(X/Y/Z)	Formatted/subject01/trials/walk2/markers.trc
DataRate	CameraRate	NumFrames	NumMarkers	Units	OrigDataRate	OrigDataStartFrame	OrigNumFrames
200.00000000000426	200.00000000000426	4	64	m	200.00000000000426	139	223
Frame#	Time	CLAV			C7			RACR			RASH			RPSH			RLEL			RMEL			RUA1			RUA2			RUA3			RFAsuperior			RFAradius			RFAulna			RASI			RPSI			RCAL			RTOE			RMT5			RTH1			RTH2			RTH3			RTB1			RTB2			RTB3			RLFC			RMFC			RLMAL			RMMAL			RHJC			RKJC			REJC			RAJC			RSJC			LACR			LASH			LPSH			LLEL			LMEL			LUA1			LUA2			LUA3			LFAsuperior			LFAradius			LFAulna			LASI			LPSI			LCAL			LTOE			LMT5			LTH1			LTH2			LTH3			LTB1			LTB2			LTB3			LLFC			LMFC			LLMAL			LMMAL			LHJC			LKJC			LEJC			LAJC			LSJC			
		X1	Y1	Z1	X2	Y2	Z2	X3	Y3	Z3	X4	Y4	Z4	X5	Y5	Z5	X6	Y6	Z6	X7	Y7	Z7	X8	Y8	Z8	X9	Y9	Z9	X10	Y10	Z10	X11	Y11	Z11	X12	Y12	Z12	X13	Y13	Z13	X14	Y14	Z14	X15	Y15	Z15	X16	Y16	Z16	X17	Y17	Z17	X18	Y18	Z18	X19	Y19	Z19	X20	Y20	Z20	X21	Y21	Z21	X22	Y22	Z22	X23	Y23	Z23	X24	Y24	Z24	X25	Y25	Z25	X26	Y26	Z26	X27	Y27	Z27	X28	Y28	Z28	X29	Y29	Z29	X30	Y30	Z30	X31	Y31	Z31	X32	Y32	Z32	X33	Y33	Z33	X34	Y34	Z34	X35	Y35	Z35	X36	Y36	Z36	X37	Y37	Z37	X38	Y38	Z38	X39	Y39	Z39	X40	Y40	Z40	X41	Y41	Z41	X42	Y42	Z42	X43	Y43	Z43	X44	Y44	Z44	X45	Y45	Z45	X46	Y46	Z46	X47	Y47	Z47	X48	Y48	Z48	X49	Y49	Z49	X50	Y50	Z50	X51	Y51	Z51	X52	Y52	Z52	X53	Y53	Z53	X54	Y54	Z54	X55	Y55	Z55	X56	Y56	Z56	X57	Y57	Z57	X58	Y58	Z58	X59	Y59	Z59	X60	Y60	Z60	X61	Y61	Z61	X62	Y62	Z62	X63	Y63	Z63	X64	Y64	Z64	

140	4.075	1.880963389628353	1.442486249353394	-0.5016291049617391	1.758146886699916	1.511705961750702	-0.520389879227186	1.845997565073303	1.468347554054895	-0.3634934951593066	1.904322582251067	1.429132075749614	-0.3440662118787861	1.807899901954293	1.448307362456074	-0.3264869072238505	1.795653994477758	1.12110864807401	-0.2313374712020664	1.794604892539411	1.102572563473245	-0.3107012984572798	1.776834676730944	1.342397573937535	-0.277685920747228	1.838011782907871	1.287680565130378	-0.2798830126535735	1.813751148141514	1.184617041009366	-0.2445538721155124	1.891652378459925	1.079141790062377	-0.264420384749259	2.028518260007198	0.9754736765204275	-0.2847425712666242	1.986176973770903	0.9321018903665331	-0.2522748657180176	1.848507719565324	1.005210769556564	-0.388836831267369	1.685796202347456	1.049270509123381	-0.4695690602503959	1.298398934851756	0.232255977692174	-0.4364093690284144	1.450464730263744	0.04424263632444969	-0.4511017959716076	1.394120868595856	0.06017397988304381	-0.3595558199056742	1.76793726049144	0.8877555861192065	-0.3457858935142007	1.686867252101667	0.756196881786191	-0.3611400025045342	1.694002988358025	0.5990185995620558	-0.355516400174657	1.620082405625123	0.3518498943278217	-0.4123514339673858	1.528350995380272	0.3749270084750012	-0.3519028267338699	1.470972385803861	0.2364471419457089	-0.4295541734153519	1.703579319741137	0.5035783840212529	-0.3488940977993711	1.719169229941108	0.4904369428479169	-0.4608204399284901	1.354423054377491	0.1839814512743735	-0.3717381961602284	1.369829577572	0.1749065072703631	-0.4748752300424964	1.768160598060687	0.9002444903476643	-0.4442923051231305	1.714890487245275	0.4906397301130436	-0.4065281627240296	1.797932726878003	1.100604294416408	-0.2751342200428565	1.344120214266943	0.1801362367155755	-0.4330243076538897	1.859153377666043	1.438114738807255	-0.3358311866131815	1.784063957972959	1.477186121321301	-0.6882793527111614	1.835148625512225	1.432676609701162	-0.7273524625304753	1.731012130791709	1.453385919344139	-0.708366813503145	1.673615725277016	1.120317225245345	-0.7602148342822558	1.675749849417107	1.117030705442277	-0.6731309474831302	1.696768995603802	1.359039796052553	-0.7342999723577271	1.739680770381892	1.277189734417097	-0.7445308777384345	1.691307297359856	1.190585971667285	-0.7526816406311335	1.709226493341056	1.039679038617494	-0.7454255810440283	1.739731184957452	0.8602080136833886	-0.7157632847507081	1.670207587142698	0.85339166222	-0.7319895831042484	1.863283564886744	1.014727641272238	-0.6383961067151995	1.693140250040036	1.058053570006701	-0.5818297914631951	1.879843753908352	0.04515757133657953	-0.5663750113690493	2.115502342691275	0.04897401013525746	-0.5387855491423924	2.079596574788936	0.005805540319420758	-0.6366012986162829	1.827167445233405	0.8846872901875514	-0.6955309560698025	1.806764058659501	0.7180902555323181	-0.6536672598072112	1.901399404482068	0.6115231906781944	-0.6439918386344617	2.007436491202367	0.4029488948702639	-0.5755375892659826	1.938396083606574	0.2909885455521555	-0.6361350280166769	1.997395260168283	0.1862917699652991	-0.5751147315265827	1.945282346785707	0.5324243299539456	-0.6560581235450359	1.953891637839593	0.5376104834838635	-0.5427345480734086	1.955280584777606	0.06029834859651684	-0.6293743251033321	1.966170113032893	0.06670497370582146	-0.5254640914747953	1.779003938182939	0.9068570293350499	-0.6034539046568077	1.953719750283046	0.5337423140014252	-0.5972062146606517	1.677543335796151	1.112058892492502	-0.7109256123539934	1.947974724035922	0.05029677570800983	-0.5683537171914209	1.789979420927201	1.441659272758803	-0.7191174372648708	
141	4.08	1.887398357473634	1.443032422111878	-0.5019773055855478	1.764516675803842	1.512042929065184	-0.5210788988967726	1.852029277483642	1.468875763449086	-0.3639410329889637	1.910368308744348	1.429762694901455	-0.344350065592972	1.813868420702184	1.448783154113146	-0.3270280972502555	1.800631353058895	1.121550544025101	-0.2327314788494328	1.799664455759386	1.103238303278061	-0.3121482974222878	1.782488530701968	1.343017817036929	-0.2784941184931196	1.843520858541712	1.288141428851059	-0.2807421318307001	1.818922395166406	1.18504615916159	-0.2457407384027698	1.896278349964692	1.078335624470041	-0.2655852396051455	2.031700336764334	0.9727020149227821	-0.2854539231840854	1.988640596362166	0.9299559951055323	-0.2531014147157278	1.855631488776301	1.005158377437712	-0.3896928479521323	1.692892110294143	1.049357533018371	-0.4702926036577275	1.308079075238973	0.2402261303305015	-0.4344204432318534	1.45235995398361	0.04631435476705684	-0.4508564221356389	1.396879722266642	0.06382229563923639	-0.3590712376876881	1.7756776564395	0.8884694076202967	-0.3469645731639832	1.696416422923492	0.7556874267172062	-0.3611909577348688	1.705782290077847	0.598664832168726	-0.3545772317256229	1.630704968152449	0.3529196283584929	-0.4108859363952329	1.539467422038084	0.3775675359322289	-0.3503101180300745	1.479509266822213	0.2402656534947125	-0.4281042220133744	1.716722936478436	0.5034136931327153	-0.347371780826222	1.732122593565273	0.4897649754836315	-0.4592637461620021	1.362085085900089	0.1898372510083746	-0.3702455965806603	1.377221825709821	0.1806363547613763	-0.4734114142715767	1.775396421431312	0.9003193097946887	-0.4455497468053216	1.7280205592532	0.4899584248549162	-0.4049575867699894	1.802927617532965	1.101162045908525	-0.2765813666863099	1.351653210383464	0.1862698303303305	-0.4315266795857093	1.865162936190996	1.438672829019171	-0.3362355895228265	1.790929060067235	1.477517430523659	-0.6888899985932817	1.8421892469175	1.433081365242629	-0.7278165594435402	1.737969367831962	1.453623461191256	-0.7091088336334063	1.68227288976453	1.120168314394374	-0.7616716537507416	1.684004858772225	1.116804228347696	-0.6745818021793265	1.704221849166039	1.358966976834707	-0.7354121448807464	1.747551881998296	1.277321924307329	-0.7455174940483771	1.699610187708259	1.190508694907916	-0.7539848844502469	1.718323979365749	1.039742994638555	-0.7468176590492047	1.749937947415764	0.8604616957140365	-0.7171695612523431	1.68052333603254	0.8531847400782226	-0.7336602768774667	1.870443868285474	1.015609122208	-0.6392125941873428	1.700248223959796	1.058561326999293	-0.5825188338159133	1.880208705456225	0.04558150325925244	-0.566546198310289	2.115854236216224	0.04853256857561913	-0.5387399194410217	2.079876775378306	0.005413060583767868	-0.6365509215943228	1.834437803159664	0.885135329439288	-0.696700603347817	1.81341292514274	0.7186359199428536	-0.6547561120995038	1.907666620740907	0.6117454310116739	-0.6449242248141773	2.01188863533504	0.4023963294009005	-0.5760134475450993	1.941735895103281	0.2911430951958202	-0.6366357058373732	1.999358384591493	0.1858696834906157	-0.5752928029869968	1.951285144124306	0.5324867237528959	-0.6569000073005541	1.959802447118558	0.5377116911334674	-0.5435712637968161	1.955950652755667	0.06028490003540377	-0.6294806483765689	1.966623501521798	0.06672572186929199	-0.5255500492395949	1.786262534494936	0.9075288182607698	-0.604683869599747	1.959738322570623	0.5337644454873869	-0.5980293287213891	1.686001761109603	1.111878435986038	-0.7123722925276276	1.948360412892888	0.05046164132320585	-0.5684657854458132	1.796983874364148	1.441991499360346	-0.7197020833733946	
142	4.085	1.893792958218436	1.443599590761816	-0.5022940249694654	1.77085291183931	1.512407915134198	-0.521746225881937	1.858006933048879	1.469418182402637	-0.3643606229545197	1.916355252737401	1.430403562352976	-0.3446017334344391	1.819778136729228	1.449272825737684	-0.327546868706084	1.805565404905822	1.121992651170876	-0.2341443877238095	1.804693398590375	1.103913089708234	-0.3136155975176934	1.788085231377573	1.343638394452219	-0.2792968209274794	1.84897752123256	1.288608716450037	-0.2815946810239345	1.82404611279627	1.185477440790439	-0.2469366166106685	1.900844779084861	1.077530088316155	-0.266761042599937	2.034784849445022	0.9699410566776697	-0.2861774373454501	1.99100688198914	0.9278305108457811	-0.2539557093798971	1.862679239261632	1.005145032646461	-0.3905302913661575	1.699924539078382	1.049485838296924	-0.4710212337456114	1.318138087666668	0.2481943397961388	-0.4323649859732068	1.454530102713501	0.04881157940623466	-0.4506029454748819	1.399987524359772	0.06782212131736964	-0.3585550740607704	1.783404369690622	0.8892052796405183	-0.3481292602404218	1.706026554060943	0.7552000184381461	-0.361207915654881	1.71770221612789	0.5983743552466583	-0.3536616372434153	1.641545740711557	0.3541217869758985	-0.4094640202096048	1.550845196461775	0.3803017406348371	-0.3487247393565028	1.488336148873471	0.2442173460921877	-0.4266501295955273	1.730056250251832	0.503338993295233	-0.3459122131609503	1.745202578963333	0.4892168944277117	-0.4577800096383062	1.370106622329385	0.1958057388304609	-0.3687089705199897	1.384937649826614	0.1864987144428093	-0.4719096645296477	1.782554187734412	0.900433991920266	-0.4467838543946999	1.74130488990272	0.4893886200499464	-0.4034559116445954	1.807887122626876	1.101725275561645	-0.2780490510527692	1.359530226350453	0.192522357178252	-0.4299811575576903	1.871113702743373	1.439242868785543	-0.3366123820524412	1.797777256711126	1.477885832645887	-0.6894766487254494	1.84921454128278	1.433523199217666	-0.7282530630055359	1.744911255993953	1.45390200367315	-0.7098338090989124	1.690916284655082	1.120072037882482	-0.7631268972063605	1.692228666519161	1.116626878927971	-0.6760328814996244	1.711663527786288	1.358939643166848	-0.7365197767991972	1.755408908397571	1.27749972685518	-0.7464900393616883	1.707899601879548	1.1904814434462	-0.7552834287595921	1.727401574461404	1.039861748583506	-0.7482012159729745	1.760119067854638	0.8607779954907168	-0.7185564554381496	1.690819932606669	0.8530413039092013	-0.7353212851687035	1.877556510899119	1.016496472102721	-0.6400068233790036	1.707305828231491	1.059095323794833	-0.5832118007569563	1.880550980691376	0.04596142936414974	-0.5667173672083503	2.116185258215135	0.0481635913683137	-0.5387468141823133	2.080135769510604	0.005083494022819696	-0.6365486616949293	1.841637902105147	0.8855734883362346	-0.6978422918746947	1.819900593757765	0.7191867479766723	-0.6558139530698103	1.913713091824111	0.6119237947676671	-0.6458201629537114	2.016129383754155	0.4018214378369673	-0.5764767908297959	1.944914444256993	0.2912575170278079	-0.6371216512162448	2.001219409956962	0.1854467278037168	-0.5754805775860461	1.957023968422408	0.5324824822633857	-0.6577022276112521	1.965448877499402	0.5377450046983174	-0.5443683156377116	1.956573829884836	0.06026775835271475	-0.6296016399721081	1.967050135466433	0.06674171025838677	-0.5256531032256246	1.793461201022494	0.908219187796191	-0.6058880537399476	1.965482023854435	0.5337222725929115	-0.598813997355703	1.694436193305705	1.11174863674648	-0.7138178227964643	1.948719633217507	0.05061694896744362	-0.5685926642039452	1.803972991288752	1.442362505650232	-0.720263711623538	
143	4.09	1.900145169541753	1.444174703329925	-0.5025826267629813	1.777157186135661	1.512794230721199	-0.5223953758220254	1.863931447094371	1.469966700931874	-0.3647559173436045	1.922282382248691	1.431043772386416	-0.3448246679291408	1.825629288248388	1.449771152599665	-0.3280460655273661	1.810447942925436	1.122430794725389	-0.2355727305067836	1.809687357374965	1.104590175389573	-0.3150990653596739	1.793620680966886	1.34425378917691	-0.280098415151348	1.854377323568431	1.289076231832144	-0.28244023732297	1.829115260506005	1.185906093317776	-0.2481391110524898	1.905344727815694	1.076720884733325	-0.2679387098301799	2.037766186975742	0.9671877097213006	-0.2868960115267434	1.993269201702356	0.9257229195077228	-0.2548220698912339	1.869655543129038	1.005185931702959	-0.3913491648651422	1.706882329527125	1.049645219302874	-0.4717372483254305	1.328539580031523	0.256185102472578	-0.4303068879733743	1.457019334481326	0.05178802066660685	-0.4503985708730158	1.403478011821428	0.0722100925884519	-0.3580656410194464	1.791126538430075	0.8899544711623359	-0.3492623374776458	1.715710896034387	0.7547289169228807	-0.3611920470996132	1.729777809184716	0.5981430930606024	-0.3527921805645106	1.652608190354939	0.3554659138307202	-0.4081353112597711	1.562489499884024	0.3831398906599823	-0.3471926203641119	1.497445324947948	0.2483254229068037	-0.425250448310147	1.7435952294813	0.5033509208844611	-0.3445508976267557	1.758425150392599	0.4888009178370964	-0.456406249289724	1.378474939014737	0.2019126524957108	-0.3671902675216848	1.392962998072539	0.1925301673384737	-0.4704328383956359	1.789643120019117	0.9005895956409979	-0.4479752005386812	1.754759677425898	0.4889322859270935	-0.4020605639909505	1.812805072768696	1.102288361272151	-0.2795329700736366	1.367737741573208	0.1989276436161607	-0.4284497481304105	1.877005240364249	1.439816613647313	-0.3369647316340295	1.804606405327129	1.478279539586198	-0.6900422240924415	1.856219490580769	1.433986646951469	-0.728664457143648	1.751834149060441	1.454212217581778	-0.7105435665497314	1.699544472972317	1.120014294539833	-0.764579747319362	1.700420483991536	1.116484947433348	-0.6774836202412859	1.719090500821042	1.358944098204335	-0.737623829149613	1.763248900494457	1.277709734575421	-0.7474492214232501	1.716173458848532	1.190490327498553	-0.7565770565101089	1.736458739682803	1.040021579758168	-0.7495748290439558	1.770275508596647	0.8611436134771095	-0.7199212265261712	1.701098536522344	0.8529473771240413	-0.736969813063301	1.88459187112106	1.017385476977803	-0.6407821330459003	1.714286007380992	1.059636712927054	-0.583892964081773	1.880871096290146	0.04629153187529692	-0.5668848087064856	2.116495961278888	0.04784624952795891	-0.538791749950335	2.080375929635826	0.004799395971540405	-0.6365822071178566	1.848757151305128	0.8859945371984823	-0.6989386195931276	1.826223413349229	0.719734853060036	-0.6568270144433991	1.919539198640267	0.612055096523991	-0.6466665019905279	2.020162138763776	0.4012200585702013	-0.5769150217971339	1.947935711674004	0.2913273493938546	-0.6375836544115183	2.002981024291885	0.1850151333199471	-0.5756682241114879	1.962502639652185	0.5324110730654487	-0.6584525059101071	1.970832788402682	0.5377082281871112	-0.5451132028949057	1.957153611497088	0.06023837418009265	-0.6297302276044929	1.967450155702128	0.06674221656183071	-0.5257655964294721	1.800587290863522	0.9089169814318614	-0.6070493915107048	1.970954356189685	0.5336145116700055	-0.5995477192071299	1.702845615112442	1.111655635791011	-0.7152615066062989	1.949053633056776	0.05075269679343619	-0.5687274905745615	1.810942348696327	1.442759488212366	-0.7208045208485366	
